<?xml version="1.0" encoding="UTF-8"?>
<svg version="1.1" xmlns="http://www.w3.org/2000/svg" width="420" height="370">
<path d="M0 0 C-0.42410156 0.63164063 -0.84820312 1.26328125 -1.28515625 1.9140625 C-4.67782069 7.08880782 -7.85199861 12.34398991 -10.75 17.8125 C-11.30171875 18.85019531 -11.8534375 19.88789063 -12.421875 20.95703125 C-16.83969618 31.06584762 -17.4397517 42.14053464 -17.38476562 53.00683594 C-17.38888522 54.34241699 -17.39435418 55.67799443 -17.40104675 57.01356506 C-17.41264854 59.85790456 -17.41530113 62.70205071 -17.41069031 65.54640961 C-17.40380324 70.05343786 -17.41987716 74.56021758 -17.43908691 79.06719971 C-17.47990503 89.44007719 -17.4914732 99.81294598 -17.50261688 110.1858902 C-17.51315338 119.71432067 -17.53003318 129.24262926 -17.57071257 138.77098489 C-17.5889588 143.24244588 -17.59300177 147.7136157 -17.58577728 152.18510485 C-17.58461657 154.29854335 -17.59028922 156.41183387 -17.59895325 158.5252533 C-17.60942718 161.08918669 -17.60949156 163.65319491 -17.59660339 166.21711731 C-17.71274564 182.44701566 -23.64922716 193.081707 -34.97802734 204.27075195 C-37.82743512 207.02367963 -40.75049455 209.65916765 -43.7578125 212.23828125 C-48.93183354 216.72974811 -53.69237543 221.62339947 -58.5 226.5 C-63.93566031 232.01364683 -69.36281662 237.43728694 -75.24462891 242.47607422 C-77.75361913 244.65425461 -80.09157964 246.95926007 -82.4375 249.3125 C-83.28183594 250.15425781 -84.12617188 250.99601563 -84.99609375 251.86328125 C-87.03659707 253.8351513 -87.03659707 253.8351513 -88 256 C-88.66 256 -89.32 256 -90 256 C-90.2371875 256.57492187 -90.474375 257.14984375 -90.71875 257.7421875 C-92.27783655 260.48960222 -94.10307351 262.06940798 -96.5 264.125 C-100.19855009 267.36456696 -103.73722375 270.68438644 -107.1875 274.1875 C-110.97880557 278.01462893 -114.77441191 281.65474276 -119 285 C-119.66 285 -120.32 285 -121 285 C-120.43619945 279.84378769 -117.9096303 275.88560323 -115.4375 271.4375 C-107.84247926 257.375635 -101.69033646 242.58142061 -98 227 C-97.78730469 226.11570313 -97.57460938 225.23140625 -97.35546875 224.3203125 C-94.00411991 207.6841204 -94.91342062 189.96919418 -94.97265625 173.06640625 C-94.97526522 172.27861534 -94.97787418 171.49082443 -94.98056221 170.67916107 C-95.00687653 163.31280982 -95.04596454 155.9465497 -95.09594727 148.58032227 C-95.12307292 144.50017372 -95.13987952 140.4200795 -95.15081596 136.3398571 C-95.1569091 134.81599826 -95.166759 133.29214843 -95.18089485 131.76834297 C-95.43838908 103.82753718 -89.43187994 79.80631438 -69.45605469 59.16503906 C-65.25263385 54.90449947 -61.08050671 51.18850792 -56 48 C-81.58565686 51.9683876 -105.03236731 62.68072198 -127.86279297 74.47949219 C-128.75240723 74.93743164 -129.64202148 75.39537109 -130.55859375 75.8671875 C-131.34419678 76.2782373 -132.1297998 76.68928711 -132.93920898 77.11279297 C-135 78 -135 78 -138 78 C-134.27727952 69.76706047 -125.97176512 64.36642446 -119 59 C-118.43667969 58.56026855 -117.87335938 58.12053711 -117.29296875 57.66748047 C-100.44106907 44.53689161 -82.61867599 34.00685112 -63.59570312 24.33251953 C-60.64925799 22.81994452 -57.73332659 21.2573833 -54.82299805 19.67675781 C-43.38806352 13.4715409 -31.79399806 8.1468299 -19.625 3.5625 C-18.70968506 3.20800781 -17.79437012 2.85351562 -16.85131836 2.48828125 C-10.96716977 0.33284497 -6.26387779 -0.36358557 0 0 Z " fill="#000000" transform="translate(418,2)"/>
<path d="M0 0 C6.81178799 -0.34909642 12.2278509 0.23805664 18.5625 2.75 C19.3663916 3.05873047 20.1702832 3.36746094 20.99853516 3.68554688 C31.112415 7.68124841 40.87353742 12.45024174 50.59765625 17.30371094 C52.89822014 18.45069127 55.20305077 19.58914694 57.51171875 20.71972656 C84.23455004 33.82615336 109.19048027 49.43359293 131.3125 69.5 C132.15047119 70.25772705 132.15047119 70.25772705 133.00537109 71.03076172 C135.47648626 73.33010901 136.91505164 74.74515491 138 78 C133.31762468 76.57805167 129.07970888 74.61973337 124.75 72.375 C92.74622914 55.69820626 92.74622914 55.69820626 58 49 C58.64066406 49.49628906 59.28132813 49.99257813 59.94140625 50.50390625 C73.42678324 61.09525301 81.80048556 72.47604698 89 88 C89.495 89.04414063 89.495 89.04414063 90 90.109375 C95.87427264 103.93839184 95.4406804 119.51631219 95.44140625 134.21875 C95.45321403 136.3323252 95.46658636 138.44589218 95.48143005 140.55944824 C95.51733194 146.08346947 95.53772824 151.60741777 95.55297852 157.13153076 C95.57795866 165.9688991 95.61804576 174.8061063 95.67487907 183.64332581 C95.69096996 186.69841487 95.69496306 189.75334587 95.69789124 192.80847168 C95.7513885 207.04945799 96.24869186 221.13247398 100.625 234.8125 C100.88297363 235.64160889 101.14094727 236.47071777 101.40673828 237.32495117 C105.73163431 250.81377881 111.47552728 263.61737413 118.3359375 275.99609375 C119.61729854 278.30916098 120.84368963 280.62313979 122 283 C121.01 283.33 120.02 283.66 119 284 C117.484375 283.09375 117.484375 283.09375 115.75 281.5 C115.05390625 280.860625 114.3578125 280.22125 113.640625 279.5625 C109.54263704 275.58575429 105.51686032 271.53778722 101.5 267.47924805 C98.34198214 264.2979398 95.19083202 261.19170861 91.75 258.3125 C87.82512386 255.01048464 84.48382907 251.20698877 81.06323242 247.40161133 C77.94514707 243.95871418 74.71446608 240.88398801 71.16015625 237.90625 C67.80064972 234.94162218 64.68910391 231.73300282 61.56274414 228.52539062 C58.93029925 225.84690365 56.23692567 223.30974269 53.38671875 220.86328125 C48.19910804 216.36899687 43.29608822 211.59083787 38.41723633 206.76733398 C37.34735609 205.71405618 36.27213257 204.66617851 35.19165039 203.6237793 C27.30224398 196.0092651 19.43698719 187.96486813 18.87250805 176.38448048 C18.87125077 175.38521377 18.8699935 174.38594706 18.86869812 173.35639954 C18.86468994 172.20590118 18.86068176 171.05540283 18.85655212 169.87004089 C18.85708084 168.61137711 18.85760956 167.35271332 18.8581543 166.0559082 C18.85512108 164.71345913 18.85159918 163.37101108 18.84762573 162.02856445 C18.83974295 159.13719379 18.83459388 156.24583544 18.83133507 153.35445595 C18.82540519 148.7665547 18.80884168 144.17873026 18.78999329 139.59086609 C18.78365556 138.01656442 18.77732995 136.4422627 18.77101612 134.86796093 C18.76785031 134.07939311 18.7646845 133.2908253 18.76142275 132.47836149 C18.71947303 121.80223876 18.6864359 111.12615073 18.67407227 100.44995117 C18.66564179 93.24400724 18.64296276 86.0382529 18.6047166 78.83240384 C18.58511039 75.02732071 18.57249892 71.22251998 18.57755089 67.41738319 C18.97477004 40.24943615 18.97477004 40.24943615 10.125 14.9375 C9.78275391 14.330271 9.44050781 13.72304199 9.08789062 13.09741211 C6.40658894 8.4344687 3.39739205 4.16180526 0 0 Z " fill="#000000" transform="translate(2,2)"/>
<path d="M0 0 C0.07009809 21.65317719 0.12299213 43.30633565 0.15543652 64.95960331 C0.17090178 75.01371619 0.19198484 85.06775855 0.22631836 95.12182617 C0.25623108 103.88551027 0.27557748 112.64914329 0.28226548 121.41287702 C0.28617456 126.05270584 0.29535441 130.69238853 0.31719017 135.33217049 C0.33758488 139.70123637 0.34382776 144.07009621 0.33932304 148.43920517 C0.34014691 150.0407708 0.34609481 151.64234347 0.35761642 153.24386787 C0.37260768 155.43558026 0.36893004 157.62652122 0.36076355 159.81825256 C0.36352893 161.04331544 0.36629431 162.26837831 0.36914349 163.53056431 C-0.23021307 169.16368287 -2.31871214 173.73812727 -6.19140625 177.93359375 C-6.80516113 178.60245605 -7.41891602 179.27131836 -8.05126953 179.96044922 C-11.30775238 183.3687 -14.59455377 186.73889579 -17.9375 190.0625 C-18.60201172 190.73087891 -19.26652344 191.39925781 -19.95117188 192.08789062 C-23.9470732 196.07604044 -28.05376385 199.87567248 -32.33813477 203.55249023 C-33.60229066 204.65358915 -34.8145657 205.8145657 -36 207 C-38.32421875 207.41015625 -38.32421875 207.41015625 -41 207 C-43.39453125 205.05859375 -43.39453125 205.05859375 -45.8125 202.4375 C-48.7024042 199.34016385 -51.59242688 196.43667142 -54.80078125 193.66796875 C-59.16107853 189.90102093 -63.28618269 185.933132 -67.375 181.875 C-68.08527344 181.18535156 -68.79554688 180.49570312 -69.52734375 179.78515625 C-70.20667969 179.11097656 -70.88601562 178.43679688 -71.5859375 177.7421875 C-72.1948584 177.1426123 -72.8037793 176.54303711 -73.43115234 175.92529297 C-78.01091248 170.30500221 -78.12568203 163.12436122 -78.12025452 156.16629028 C-78.12110894 155.5037118 -78.12196337 154.84113333 -78.12284368 154.15847671 C-78.12448262 151.95214001 -78.11900326 149.7458804 -78.11352539 147.53955078 C-78.11324315 145.95247906 -78.11340197 144.36540721 -78.1139679 142.77833557 C-78.11425443 138.47922972 -78.10838091 134.18015185 -78.10139394 129.88105249 C-78.09513649 125.38472289 -78.09455471 120.88839262 -78.09336853 116.39205933 C-78.09026227 107.88179602 -78.08205838 99.37154559 -78.07201904 90.86128795 C-78.06083602 81.17088754 -78.05534193 71.48048652 -78.05032361 61.79008126 C-78.03987518 41.860047 -78.02228938 21.93002431 -78 2 C-70.433517 1.7678436 -67.45879803 5.05877689 -62 10 C-61.18144531 10.73605469 -60.36289063 11.47210938 -59.51953125 12.23046875 C-54.45421659 17.03808854 -50.1026104 22.22661585 -45.9375 27.8125 C-45.45998291 28.44679932 -44.98246582 29.08109863 -44.49047852 29.73461914 C-42.04496004 33.11087134 -40.39835994 35.73185781 -40 40 C-39.34 40 -38.68 40 -38 40 C-37.75507813 39.13117188 -37.51015625 38.26234375 -37.2578125 37.3671875 C-33.63833308 27.67777366 -24.98442436 19.71511871 -17.8125 12.5 C-17.14782715 11.82984863 -16.4831543 11.15969727 -15.79833984 10.46923828 C-5.17611194 0 -5.17611194 0 0 0 Z " fill="#000000" transform="translate(249,159)"/>
</svg>
